<svg width="62" height="62" viewBox="0 0 62 62" fill="none" xmlns="http://www.w3.org/2000/svg">
<g clip-path="url(#clip0_20_65)">
<path d="M54.988 23.789L54.957 23.676C54.932 23.483 54.887 23.296 54.822 23.104L54.758 22.912L54.712 22.813C54.609 22.591 54.49 22.395 54.354 22.216L54.321 22.148L33.05 0.884C32.802 0.636 32.513 0.438 32.15 0.271L31.897 0.177C31.71 0.113 31.519 0.068 31.316 0.04L31.169 0H17C11.486 0 7 4.485 7 10V51.994C7 57.508 11.486 61.994 17.001 61.994H44.997C50.512 61.994 54.995 57.51 54.995 51.994V24.073L54.988 23.789ZM48.994 51.993C48.994 54.196 47.201 55.99 44.997 55.99H17C14.795 55.99 13.001 54.196 13.001 51.993V9.999C13.001 7.794 14.794 6 17 6H27.921V17.072C27.921 22.586 32.407 27.073 37.921 27.073H48.993V51.993H48.994Z" fill="#DA1C5C"/>
<path d="M14.6748 34.112C14.6748 35.403 15.7208 36.449 17.0118 36.449H43.4988C44.7898 36.449 45.8358 35.402 45.8358 34.112C45.8358 32.822 44.7898 31.775 43.4988 31.775H17.0118C15.7208 31.775 14.6748 32.822 14.6748 34.112Z" fill="#DA1C5C"/>
<path d="M43.4988 38.008H17.0118C15.7208 38.008 14.6748 39.055 14.6748 40.344C14.6748 41.635 15.7208 42.682 17.0118 42.682H43.4988C44.7898 42.682 45.8358 41.635 45.8358 40.344C45.8358 39.055 44.7898 38.008 43.4988 38.008Z" fill="#DA1C5C"/>
<path d="M43.4988 44.24H17.0118C15.7208 44.24 14.6748 45.286 14.6748 46.577C14.6748 47.868 15.7208 48.914 17.0118 48.914H43.4988C44.7898 48.914 45.8358 47.867 45.8358 46.577C45.8358 45.287 44.7898 44.24 43.4988 44.24Z" fill="#DA1C5C"/>
</g>
<defs>
<clipPath id="clip0_20_65">
<rect width="61.994" height="61.994" fill="white"/>
</clipPath>
</defs>
</svg>
