<svg width="463" height="463" viewBox="0 0 463 463" fill="none" xmlns="http://www.w3.org/2000/svg">
<path d="M259.476 280.364V247.5C259.476 234.542 248.934 224 235.976 224C223.018 224 212.476 234.542 212.476 247.5V277.172C212.476 312.929 199.303 347.259 175.382 373.837L142.401 410.483C139.63 413.562 139.88 418.304 142.959 421.076C146.037 423.847 150.779 423.597 153.551 420.518L186.532 383.872C212.935 354.534 227.476 316.641 227.476 277.172V247.5C227.476 242.813 231.289 239 235.976 239C240.663 239 244.476 242.813 244.476 247.5V280.364C244.476 324.367 228.175 366.531 198.575 399.091L166.426 434.455C163.64 437.519 163.866 442.264 166.931 445.05C168.368 446.357 170.173 447 171.973 447C174.013 447 176.045 446.173 177.525 444.545L209.673 409.181C241.789 373.854 259.476 328.106 259.476 280.364Z" fill="#DA1C5C"/>
<path d="M291.476 247.5C291.476 216.897 266.579 192 235.976 192C205.373 192 180.476 216.897 180.476 247.5V277.172C180.476 305.011 170.22 331.738 151.597 352.43L128.15 378.483C125.379 381.562 125.629 386.304 128.708 389.076C131.787 391.847 136.528 391.595 139.3 388.518L162.747 362.465C183.853 339.014 195.477 308.723 195.477 277.172V247.5C195.477 225.168 213.645 207 235.977 207C258.309 207 276.477 225.168 276.477 247.5V280.364C276.477 332.343 257.221 382.153 222.254 420.616L195.129 450.455C192.342 453.519 192.568 458.264 195.633 461.05C197.07 462.357 198.875 463 200.675 463C202.715 463 204.747 462.173 206.227 460.545L233.353 430.706C270.834 389.476 291.476 336.084 291.476 280.364V247.5V247.5Z" fill="#DA1C5C"/>
<path d="M323.476 247.5C323.476 199.252 284.224 160 235.976 160C187.728 160 148.476 199.252 148.476 247.5V277.172C148.476 297.092 141.137 316.217 127.811 331.023L106.699 354.481C103.928 357.56 104.178 362.302 107.257 365.074C110.335 367.845 115.078 367.593 117.849 364.516L138.961 341.058C154.77 323.493 163.476 300.804 163.476 277.172V247.5C163.476 207.523 195.999 175 235.976 175C275.953 175 308.476 207.523 308.476 247.5V280.364C308.476 340.322 286.264 397.776 245.931 442.141L238.424 450.399C235.638 453.464 235.864 458.208 238.929 460.994C240.366 462.3 242.172 462.944 243.971 462.944C246.011 462.944 248.043 462.117 249.523 460.489L257.029 452.231C299.877 405.098 323.475 344.062 323.475 280.364V247.5H323.476Z" fill="#DA1C5C"/>
<path d="M116.476 247.5C116.476 251.643 119.834 255 123.976 255C128.118 255 131.476 251.643 131.476 247.5C131.476 222.245 140.645 197.849 157.295 178.805C173.79 159.938 196.429 147.6 221.041 144.064C225.141 143.475 227.987 139.673 227.398 135.574C226.809 131.474 223.004 128.632 218.908 129.217C190.748 133.263 164.856 147.367 146.002 168.933C126.962 190.71 116.476 218.613 116.476 247.5Z" fill="#DA1C5C"/>
<path d="M131.476 277.172C131.476 273.029 128.118 269.672 123.976 269.672C119.834 269.672 116.476 273.029 116.476 277.172C116.476 289.174 112.055 300.695 104.027 309.615L85.248 330.482C82.477 333.56 82.727 338.302 85.806 341.074C87.24 342.364 89.033 342.999 90.821 342.999C92.873 342.999 94.918 342.161 96.398 340.516L115.177 319.65C125.687 307.971 131.476 292.886 131.476 277.172Z" fill="#DA1C5C"/>
<path d="M340.755 344.123C336.746 343.079 332.65 345.474 331.6 349.48C328.831 360.059 325.387 370.576 321.36 380.738C319.834 384.589 321.719 388.948 325.57 390.473C326.477 390.832 327.411 391.002 328.331 391.002C331.316 391.002 334.139 389.207 335.306 386.263C339.555 375.538 343.19 364.441 346.112 353.277C347.16 349.271 344.761 345.172 340.755 344.123Z" fill="#DA1C5C"/>
<path d="M315.791 158.632C312.71 155.861 307.968 156.115 305.199 159.195C302.43 162.275 302.682 167.017 305.762 169.786C327.823 189.618 340.475 217.943 340.475 247.5V280.364C340.475 292.837 339.615 305.406 337.918 317.723C337.353 321.827 340.221 325.611 344.324 326.176C344.671 326.224 345.016 326.247 345.357 326.247C349.045 326.247 352.26 323.525 352.777 319.769C354.567 306.776 355.475 293.518 355.475 280.363V247.5C355.476 213.695 341.011 181.304 315.791 158.632Z" fill="#DA1C5C"/>
<path d="M280.729 153.076C281.77 153.572 282.867 153.806 283.948 153.806C286.751 153.806 289.44 152.227 290.725 149.528C292.506 145.789 290.917 141.313 287.178 139.533C276.372 134.388 264.887 130.917 253.042 129.216C248.936 128.631 245.141 131.474 244.552 135.573C243.963 139.672 246.809 143.474 250.909 144.063C261.257 145.55 271.289 148.582 280.729 153.076Z" fill="#DA1C5C"/>
<path d="M235.976 96C233.17 96 230.332 96.078 227.539 96.232C223.403 96.46 220.235 99.998 220.463 104.133C220.692 108.269 224.226 111.454 228.365 111.208C230.884 111.069 233.444 110.999 235.975 110.999C311.241 110.999 372.475 172.232 372.475 247.499V280.363C372.475 284.506 375.833 287.863 379.975 287.863C384.117 287.863 387.475 284.506 387.475 280.363V247.5C387.476 163.963 319.513 96 235.976 96Z" fill="#DA1C5C"/>
<path d="M153.972 136.693C155.449 136.693 156.942 136.257 158.247 135.35C170.725 126.673 184.429 120.195 198.98 116.092C202.967 114.968 205.288 110.824 204.164 106.838C203.04 102.852 198.895 100.534 194.91 101.654C178.75 106.21 163.534 113.403 149.684 123.033C146.283 125.398 145.443 130.072 147.808 133.472C149.265 135.57 151.599 136.693 153.972 136.693Z" fill="#DA1C5C"/>
<path d="M99.476 277.172V247.5C99.476 212.61 112.689 179.382 136.681 153.935C139.522 150.921 139.383 146.175 136.369 143.333C133.355 140.491 128.608 140.632 125.767 143.645C99.14 171.886 84.476 208.77 84.476 247.5V277.172C84.476 281.255 82.972 285.174 80.242 288.207L70.9941 298.482C68.2231 301.561 68.4731 306.303 71.5521 309.074C72.9851 310.365 74.7791 311 76.5671 311C78.6191 311 80.663 310.163 82.144 308.518L91.392 298.243C96.605 292.449 99.476 284.966 99.476 277.172Z" fill="#DA1C5C"/>
<path d="M409.951 189.104C401.725 164.658 388.652 142.573 371.095 123.462C368.292 120.412 363.548 120.21 360.498 123.013C357.448 125.816 357.247 130.56 360.049 133.611C376.176 151.165 388.183 171.445 395.735 193.887C396.789 197.02 399.711 198.997 402.842 198.997C403.635 198.997 404.442 198.87 405.235 198.603C409.16 197.282 411.272 193.029 409.951 189.104Z" fill="#DA1C5C"/>
<path d="M295.247 73.8219C291.33 72.4809 287.064 74.5699 285.723 78.4899C284.382 82.4089 286.472 86.6729 290.391 88.0129C306.929 93.6719 322.456 101.87 336.541 112.382C337.888 113.387 339.461 113.871 341.021 113.871C343.307 113.871 345.565 112.83 347.038 110.856C349.516 107.537 348.832 102.837 345.513 100.36C330.176 88.9159 313.264 79.9859 295.247 73.8219Z" fill="#DA1C5C"/>
<path d="M119.442 125.908C150.991 95.659 192.377 79 235.976 79C244.072 79 252.213 79.583 260.172 80.731C264.275 81.329 268.075 78.479 268.667 74.379C269.259 70.279 266.416 66.477 262.316 65.885C253.648 64.635 244.786 64 235.976 64C188.489 64 143.416 82.141 109.061 115.081C74.813 147.919 54.784 191.986 52.664 239.165C52.478 243.303 55.682 246.809 59.819 246.994C59.934 247 60.048 247.002 60.162 247.002C64.149 247.002 67.468 243.862 67.649 239.839C69.594 196.527 87.988 156.066 119.442 125.908Z" fill="#DA1C5C"/>
<path d="M235.976 32C219.204 32 202.491 33.944 186.302 37.778C182.271 38.732 179.778 42.774 180.732 46.804C181.687 50.834 185.729 53.328 189.759 52.373C204.817 48.809 220.366 47 235.976 47C290.972 47 342.308 68.911 380.526 108.695C381.999 110.228 383.965 111 385.936 111C387.805 111 389.677 110.306 391.131 108.909C394.118 106.039 394.214 101.291 391.344 98.305C371.431 77.576 348.04 61.269 321.822 49.84C294.666 38.002 265.783 32 235.976 32Z" fill="#DA1C5C"/>
<path d="M67.5068 125.404C68.8788 126.478 70.5078 126.999 72.1258 126.999C74.3528 126.999 76.5568 126.012 78.0358 124.123C99.4108 96.821 127.551 75.406 159.413 62.191C163.239 60.604 165.055 56.216 163.468 52.39C161.881 48.564 157.491 46.746 153.667 48.335C119.426 62.536 89.1887 85.545 66.2257 114.874C63.6717 118.137 64.2458 122.851 67.5068 125.404Z" fill="#DA1C5C"/>
<path d="M131.983 38.725C133.077 38.725 134.188 38.485 135.238 37.977C166.816 22.73 200.709 15 235.976 15C254.354 15 272.658 17.162 290.377 21.426C294.402 22.392 298.454 19.916 299.423 15.889C300.392 11.862 297.913 7.811 293.885 6.842C275.019 2.302 255.535 0 235.976 0C198.432 0 162.345 8.232 128.717 24.469C124.987 26.27 123.423 30.754 125.224 34.484C126.517 37.163 129.195 38.725 131.983 38.725Z" fill="#DA1C5C"/>
<path d="M321.724 31.383C329.456 34.462 337.109 38.002 344.47 41.903C345.589 42.497 346.791 42.778 347.975 42.778C350.663 42.778 353.262 41.329 354.608 38.788C356.547 35.128 355.153 30.589 351.493 28.649C343.656 24.496 335.507 20.727 327.273 17.448C323.424 15.915 319.063 17.793 317.53 21.64C315.998 25.488 317.876 29.851 321.724 31.383Z" fill="#DA1C5C"/>
</svg>
