<svg width="972" height="972" viewBox="0 0 972 972" fill="none" xmlns="http://www.w3.org/2000/svg">
<path d="M90 576H90.5C140.2 576 180.5 535.7 180.5 486C180.5 436.3 140.2 396 90.5 396H90C40.3 396 0 436.3 0 486C0 535.7 40.3 576 90 576Z" fill="#DA1C5C"/>
<path d="M617.5 576H618.6C668.3 576 708.6 535.7 708.6 486C708.6 436.3 668.3 396 618.6 396H617.5C567.8 396 527.5 436.3 527.5 486C527.5 535.7 567.8 576 617.5 576Z" fill="#DA1C5C"/>
<path d="M354.5 576C404.2 576 444.5 535.7 444.5 486C444.5 436.3 404.2 396 354.5 396H353.4C303.7 396 263.4 436.3 263.4 486C263.4 535.7 303.7 576 353.4 576H354.5Z" fill="#DA1C5C"/>
<path d="M881.5 576H882C931.7 576 972 535.7 972 486C972 436.3 931.7 396 882 396H881.5C831.8 396 791.5 436.3 791.5 486C791.5 535.7 831.8 576 881.5 576Z" fill="#DA1C5C"/>
</svg>
