<svg width="291" height="291" viewBox="0 0 291 291" fill="none" xmlns="http://www.w3.org/2000/svg">
<g clip-path="url(#clip0_20_17)">
<path d="M234.375 150H219.375L215.625 159.375H210.937L207.187 150H191.25L187.5 159.375H182.812L179.062 150H163.124L159.374 159.375H154.687L150.937 150H126.81C119.901 136.12 105.613 126.562 89.062 126.562C65.76 126.562 46.875 145.448 46.875 168.75C46.875 192.052 65.761 210.938 89.062 210.938C105.618 210.938 119.906 201.38 126.81 187.5H234.374L248.437 168.75L234.375 150Z" fill="#66A3D4"/>
<path d="M290.625 56.25C290.625 25.233 265.392 0 234.375 0H56.25C25.233 0 0 25.233 0 56.25C0 75.066 9.319 91.711 23.55 101.93C23.512 102.328 23.438 102.727 23.438 103.125V243.75C23.438 251.503 29.747 257.813 37.5 257.813H84.375V281.251H60.938V290.626H84.375H206.25H229.687V281.251H206.25V257.813H253.125C260.878 257.813 267.188 251.504 267.188 243.75V103.125C267.188 102.727 267.113 102.328 267.075 101.93C281.306 91.711 290.625 75.066 290.625 56.25ZM196.875 281.25H93.75V257.812H196.875V281.25ZM253.125 248.438H206.25H84.375H37.5C34.912 248.438 32.812 246.333 32.812 243.75V234.375H257.812V243.75C257.813 246.333 255.712 248.438 253.125 248.438ZM257.813 225H32.813V107.32C39.957 110.611 47.879 112.5 56.25 112.5H234.375C242.747 112.5 250.669 110.611 257.813 107.32V225ZM234.375 103.125H56.25C30.403 103.125 9.375 82.097 9.375 56.25C9.375 30.403 30.403 9.375 56.25 9.375H234.375C260.222 9.375 281.25 30.403 281.25 56.25C281.25 82.097 260.222 103.125 234.375 103.125Z" fill="#DA1C5C"/>
<path d="M103.125 42.188C103.125 26.677 90.511 14.063 75 14.063C59.489 14.063 46.875 26.677 46.875 42.188V46.876H42.188V98.439H107.813V46.875H103.125V42.188ZM56.25 42.188C56.25 31.847 64.659 23.438 75 23.438C85.341 23.438 93.75 31.847 93.75 42.188V46.876H56.25V42.188ZM98.438 89.063H51.563V56.25H98.438V89.063Z" fill="#DA1C5C"/>
<path d="M70.313 78.384V84.375H79.688V78.384C82.477 76.757 84.376 73.767 84.376 70.312C84.376 65.142 80.171 60.937 75.001 60.937C69.831 60.937 65.626 65.142 65.626 70.312C65.625 73.767 67.523 76.758 70.313 78.384Z" fill="#DA1C5C"/>
<path d="M157.012 44.892L145.313 48.694V37.5H135.938V48.694L124.238 44.892L121.345 53.808L133.041 57.609L125.813 67.556L133.392 73.069L140.625 63.117L147.858 73.069L155.438 67.556L148.209 57.609L159.905 53.808L157.012 44.892Z" fill="#DA1C5C"/>
<path d="M203.887 44.892L192.187 48.694V37.5H182.812V48.694L171.112 44.892L168.22 53.808L179.916 57.609L172.687 67.556L180.267 73.069L187.5 63.117L194.733 73.069L202.312 67.556L195.084 57.609L206.78 53.808L203.887 44.892Z" fill="#DA1C5C"/>
<path d="M250.762 44.892L239.062 48.694V37.5H229.687V48.694L217.987 44.892L215.095 53.808L226.791 57.609L219.562 67.556L227.142 73.069L234.375 63.117L241.608 73.069L249.187 67.556L241.959 57.609L253.655 53.808L250.762 44.892Z" fill="#DA1C5C"/>
<path d="M70.313 154.688C62.56 154.688 56.251 160.997 56.251 168.751C56.251 176.505 62.56 182.814 70.313 182.814C78.066 182.814 84.375 176.505 84.375 168.751C84.375 160.997 78.066 154.688 70.313 154.688ZM70.313 173.438C67.725 173.438 65.625 171.333 65.625 168.75C65.625 166.167 67.725 164.062 70.313 164.062C72.901 164.062 75 166.167 75 168.75C75 171.333 72.9 173.438 70.313 173.438Z" fill="#DA1C5C"/>
</g>
<defs>
<clipPath id="clip0_20_17">
<rect width="290.626" height="290.626" fill="white"/>
</clipPath>
</defs>
</svg>
