<svg width="96" height="96" viewBox="0 0 96 96" fill="none" xmlns="http://www.w3.org/2000/svg">
<g clip-path="url(#clip0_20_43)">
<path d="M77.361 66.208H71.875V80.269H77.361V66.208Z" fill="#DA1C5C"/>
<path d="M74.6193 64.528C76.396 64.528 77.8363 63.0877 77.8363 61.311C77.8363 59.5343 76.396 58.094 74.6193 58.094C72.8426 58.094 71.4023 59.5343 71.4023 61.311C71.4023 63.0877 72.8426 64.528 74.6193 64.528Z" fill="#DA1C5C"/>
<path d="M74.457 48.639C68.416 48.639 62.982 51.218 59.146 55.311L58.078 54.819L53.131 50.649L44.629 59.104L36.106 50.649L31.159 54.819L20.86 59.561C19.337 60.186 17.985 61.268 17.079 62.789L0 87.296L63.133 87.324C66.406 89.428 70.287 90.663 74.457 90.663C86.043 90.663 95.469 81.236 95.469 69.65C95.468 58.065 86.043 48.639 74.457 48.639ZM74.457 84.438C66.303 84.438 59.67 77.804 59.67 69.651C59.67 61.499 66.303 54.866 74.457 54.866C82.609 54.866 89.242 61.499 89.242 69.651C89.242 77.804 82.609 84.438 74.457 84.438Z" fill="#DA1C5C"/>
<path d="M44.5618 51.667V51.67C44.5698 51.67 44.5818 51.668 44.5908 51.668C44.5948 51.668 44.6028 51.67 44.6108 51.67C44.6108 51.67 44.6148 51.67 44.6168 51.67C44.6208 51.67 44.6228 51.67 44.6248 51.67C44.6308 51.67 44.6388 51.668 44.6448 51.668C44.6548 51.668 44.6648 51.67 44.6738 51.67V51.667C56.6778 51.85 63.9748 41.343 64.1638 24.021C64.2848 12.004 56.8318 5.133 44.6948 4.81V4.805C44.6748 4.805 44.6618 4.806 44.6438 4.806V4.805C44.6318 4.805 44.6238 4.805 44.6168 4.806C44.6088 4.805 44.5988 4.805 44.5918 4.805V4.806C44.5718 4.806 44.5588 4.805 44.5428 4.805V4.81C32.4038 5.134 24.9508 12.005 25.0718 24.022C25.2588 41.343 32.5558 51.85 44.5618 51.667Z" fill="#DA1C5C"/>
</g>
<defs>
<clipPath id="clip0_20_43">
<rect width="95.469" height="95.469" fill="white"/>
</clipPath>
</defs>
</svg>
