<svg width="37" height="38" viewBox="0 0 37 38" fill="none" xmlns="http://www.w3.org/2000/svg">
<g clip-path="url(#clip0_10_3)">
<path d="M18.5 37.2012C28.7173 37.2012 37 28.9184 37 18.7012C37 8.4839 28.7173 0.201172 18.5 0.201172C8.28273 0.201172 0 8.4839 0 18.7012C0 28.9184 8.28273 37.2012 18.5 37.2012Z" fill="#DFE3FF"/>
<path d="M25.4995 12.8003H11.4995C10.6711 12.8003 9.99951 13.4719 9.99951 14.3003V23.3003C9.99951 24.1287 10.6711 24.8003 11.4995 24.8003H25.4995C26.3279 24.8003 26.9995 24.1287 26.9995 23.3003V14.3003C26.9995 13.4719 26.3279 12.8003 25.4995 12.8003Z" fill="#DA1C5C" stroke="#DFE3FF"/>
<path d="M26.5 15H10.5V17H26.5V15Z" fill="white"/>
</g>
<defs>
<clipPath id="clip0_10_3">
<rect width="37" height="38" fill="white"/>
</clipPath>
</defs>
</svg>
