<svg width="26" height="25" viewBox="0 0 26 25" fill="none" xmlns="http://www.w3.org/2000/svg">
<g clip-path="url(#clip0_10_36)">
<path d="M12.5058 0C19.4055 0 25.0116 5.59435 25.0116 12.4941C25.0116 19.4055 19.4055 25 12.5058 25C5.60602 25 0 19.4055 0 12.4941C0 5.59435 5.60602 0 12.5058 0Z" fill="#DFE3FF"/>
<path opacity="0.502" d="M7.5874 11.0487C7.5874 10.5709 7.97203 10.1863 8.43823 10.1863H18.275C18.7529 10.1863 19.1375 10.5709 19.1375 11.0487V15.7457C19.1375 16.2236 18.7529 16.6082 18.275 16.6082H8.43823C7.97203 16.6082 7.5874 16.2236 7.5874 15.7457V11.0487Z" fill="white"/>
<path d="M6.73657 10.1862C6.73657 9.72004 7.10951 9.33545 7.58736 9.33545H17.4242C17.902 9.33545 18.275 9.72004 18.275 10.1862V14.8949C18.275 15.3611 17.902 15.7457 17.4242 15.7457H7.58736C7.10951 15.7457 6.73657 15.3611 6.73657 14.8949V10.1862Z" fill="#DA1C5C" fill-opacity="0.5"/>
<path d="M5.87427 9.3356C5.87427 8.85775 6.25887 8.47314 6.73672 8.47314H16.5735C17.0397 8.47314 17.4243 8.85775 17.4243 9.3356V14.0443C17.4243 14.5105 17.0397 14.895 16.5735 14.895H6.73672C6.25887 14.895 5.87427 14.5105 5.87427 14.0443V9.3356Z" fill="#DA1C5C"/>
<path d="M10.6875 13.2916H12.9631V12.8107H11.4578V12.7912C11.622 12.6113 11.7119 12.4705 11.7119 12.232C11.7119 11.8801 11.5086 11.5908 11.5086 11.2897C11.5086 10.9926 11.7354 10.8283 12.099 10.8283C12.3219 10.8283 12.5017 10.8987 12.6503 11.0747L12.9631 10.7619C12.7481 10.4999 12.447 10.3591 12.0443 10.3591C11.4069 10.3591 10.9534 10.7071 10.9534 11.2623C10.9534 11.5673 11.2036 11.9075 11.2036 12.2281C11.2036 12.5487 10.9886 12.7951 10.6875 12.9436V13.2916ZM10.6992 12.0483H12.5291V11.6885H11.0003L10.6992 11.7081V12.0483Z" fill="white"/>
</g>
<defs>
<clipPath id="clip0_10_36">
<rect width="26" height="25" fill="white"/>
</clipPath>
</defs>
</svg>
